<svg xmlns="http://www.w3.org/2000/svg" xmlns:xlink="http://www.w3.org/1999/xlink" viewBox="0 0 120 120"><defs><style>.cls-1{fill:url(#linear-gradient);}.cls-2{fill:#fff;}</style><linearGradient id="linear-gradient" y1="60" x2="120" y2="60" gradientUnits="userSpaceOnUse"><stop offset="0" stop-color="#00efd1"/><stop offset="1" stop-color="#00acea"/></linearGradient></defs><g id="Layer_2" data-name="Layer 2"><g id="Layer_1-2" data-name="Layer 1"><rect class="cls-1" width="120" height="120" rx="14"/><path class="cls-2" d="M60,20a40,40,0,1,0,40,40A40,40,0,0,0,60,20Zm0,74.29A34.29,34.29,0,1,1,94.29,60,34.27,34.27,0,0,1,60,94.29Z"/><path class="cls-2" d="M76.19,57.14H62.86V43.81a2.86,2.86,0,0,0-5.72,0V57.14H43.81a2.86,2.86,0,0,0,0,5.72H57.14V76.19a2.86,2.86,0,0,0,5.72,0V62.86H76.19a2.86,2.86,0,0,0,0-5.72Z"/></g></g></svg>