<svg xmlns="http://www.w3.org/2000/svg" xmlns:xlink="http://www.w3.org/1999/xlink" viewBox="0 0 120 120"><defs><style>.cls-1{fill:url(#linear-gradient);}.cls-2{fill:#fff;}</style><linearGradient id="linear-gradient" y1="60" x2="120" y2="60" gradientUnits="userSpaceOnUse"><stop offset="0" stop-color="#12afaf"/><stop offset="1" stop-color="#33a077"/></linearGradient></defs><g id="Layer_2" data-name="Layer 2"><g id="Layer_1-2" data-name="Layer 1"><rect class="cls-1" width="120" height="120" rx="14"/><path class="cls-2" d="M43.8,41.54H57.36V20.71C51.7,22.57,46.61,30.52,43.8,41.54Z"/><path class="cls-2" d="M43.8,78.46c2.81,11,7.9,19,13.56,20.83V78.46Z"/><path class="cls-2" d="M102.36,46.82H17.64A2.64,2.64,0,0,0,15,49.45v21.1a2.64,2.64,0,0,0,2.64,2.63h84.72A2.64,2.64,0,0,0,105,70.55V49.45A2.64,2.64,0,0,0,102.36,46.82Zm-3.09,9.09L94,66.45a2.64,2.64,0,0,1-4.72,0l-2.91-5.83-2.92,5.83a2.74,2.74,0,0,1-4.71,0l-5.06-10.1A2.67,2.67,0,0,1,73.15,55a2.67,2.67,0,0,1-.24.91L67.63,66.45a2.64,2.64,0,0,1-4.72,0L60,60.62l-2.91,5.83a2.75,2.75,0,0,1-4.72,0L47.09,55.91a2.5,2.5,0,0,1-.23-.87,2.72,2.72,0,0,1-.63,1.48l-5,9.93a2.63,2.63,0,0,1-4.71,0l-2.92-5.83-2.91,5.83a2.64,2.64,0,0,1-4.72,0L20.73,55.91a2.63,2.63,0,1,1,4.71-2.36l2.92,5.83,2.91-5.83a2.66,2.66,0,0,1,4.72,0l2.92,5.83,2.91-5.83a2.74,2.74,0,0,1,2.53-1.46,2.7,2.7,0,0,1,2.5,2.56,2.61,2.61,0,0,1,5-1.1l2.92,5.83,2.91-5.83a2.75,2.75,0,0,1,4.72,0l2.91,5.83,2.92-5.83a2.63,2.63,0,0,1,3.54-1.18,2.6,2.6,0,0,1,1.41,2.25,2.53,2.53,0,0,1,2.35-2.51,2.9,2.9,0,0,1,2.69,1.44l2.91,5.83L84,53.55a2.75,2.75,0,0,1,4.72,0l2.91,5.83,2.92-5.83a2.63,2.63,0,1,1,4.71,2.36Z"/><path class="cls-2" d="M62.64,78.46V99.29c5.66-1.86,10.75-9.81,13.56-20.83Z"/><path class="cls-2" d="M62.64,20.71V41.54H76.2C73.39,30.52,68.3,22.57,62.64,20.71Z"/><path class="cls-2" d="M38.38,78.46H19.31C26.52,94.28,42.48,105,60,105,50.48,105,42.15,94.51,38.38,78.46Z"/><path class="cls-2" d="M81.62,78.46C77.85,94.51,69.52,105,60,105c17.52,0,33.48-10.72,40.69-26.54Z"/><path class="cls-2" d="M19.31,41.54H38.38C42.15,25.49,50.48,15,60,15,42.48,15,26.52,25.72,19.31,41.54Z"/><path class="cls-2" d="M60,15c9.52,0,17.85,10.49,21.62,26.54h19.07C93.48,25.72,77.52,15,60,15Z"/></g></g></svg>