<svg height="512pt" viewBox="0 0 512 512.00038" width="512pt" xmlns="http://www.w3.org/2000/svg" xmlns:xlink="http://www.w3.org/1999/xlink"><linearGradient id="a" gradientUnits="userSpaceOnUse" x1="116.4724094584" x2="485.3952722936" y1="-12.8049247178" y2="697.9363124434"><stop offset="0" stop-color="#fffcf8"/><stop offset=".1875" stop-color="#faf8f6"/><stop offset=".4041" stop-color="#eceef2"/><stop offset=".6353" stop-color="#d5dcea"/><stop offset=".875" stop-color="#b5c4df"/><stop offset="1" stop-color="#a1b5d8"/></linearGradient><linearGradient id="b"><stop offset="0" stop-color="#a1b5d8" stop-opacity="0"/><stop offset=".3094" stop-color="#90a2bd" stop-opacity=".309804"/><stop offset=".7554" stop-color="#7c8b9c" stop-opacity=".756863"/><stop offset="1" stop-color="#748290"/></linearGradient><linearGradient id="c" gradientUnits="userSpaceOnUse" x1="196.3726539866" x2="-671.0159540134" xlink:href="#b" y1="222.4596783332" y2="-265.4464136668"/><linearGradient id="d" gradientUnits="userSpaceOnUse" x1="256.0003" x2="256.0003" xlink:href="#b" y1="451.9660859688" y2="531.7738692808"/><linearGradient id="e" gradientUnits="userSpaceOnUse" x1="212.1240897744" x2="10.3357677744" y1="228.4486754164" y2="55.7740914164"><stop offset="0" stop-color="#a1b5d8" stop-opacity="0"/><stop offset=".4317" stop-color="#899ab1" stop-opacity=".431373"/><stop offset=".7844" stop-color="#7a8899" stop-opacity=".784314"/><stop offset="1" stop-color="#748290"/></linearGradient><linearGradient id="f" gradientUnits="userSpaceOnUse" x1="409.600366" x2="263.0243406652" y1="409.600176" y2="263.0241506652"><stop offset="0" stop-color="#a1b5d8" stop-opacity="0"/><stop offset=".2509" stop-color="#9fb2d4" stop-opacity=".25098"/><stop offset=".4793" stop-color="#98abc9" stop-opacity=".478431"/><stop offset=".699" stop-color="#8c9eb7" stop-opacity=".698039"/><stop offset=".9122" stop-color="#7c8b9d" stop-opacity=".913725"/><stop offset="1" stop-color="#748290"/></linearGradient><linearGradient id="g" gradientUnits="userSpaceOnUse" x1="313.1958445762" x2="61.0502930952" xlink:href="#b" y1="317.6586902194" y2="121.5455392854"/><linearGradient id="h"><stop offset="0" stop-color="#fe5f50"/><stop offset=".5137" stop-color="#a073e1"/><stop offset="1" stop-color="#22c7fe"/></linearGradient><linearGradient id="i" gradientUnits="userSpaceOnUse" x1="208.6936883004" x2="330.2897248624" xlink:href="#h" y1="199.3212840772" y2="345.0070313824"/><linearGradient id="j" gradientUnits="userSpaceOnUse" x1="208.0412393926" x2="328.8560238542" xlink:href="#h" y1="201.225623719" y2="345.9753141514"/><path d="m420.421875 503.234375c-109.503906 11.6875-219.339844 11.6875-328.84375 0-43.664063-4.660156-78.152344-39.148437-82.8125-82.816406-11.6875-109.503907-11.6875-219.335938 0-328.839844 4.660156-43.664063 39.148437-78.152344 82.8125-82.8125 109.503906-11.6875 219.335937-11.6875 328.839844 0 43.667969 4.660156 78.15625 39.148437 82.816406 82.8125 11.6875 109.503906 11.6875 219.335937 0 328.839844-4.660156 43.667969-39.144531 78.15625-82.8125 82.816406zm0 0" fill="url(#a)"/><path d="m475.386719 110.097656c-4.132813-38.746094-34.734375-69.351562-73.484375-73.488281-97.171875-10.367187-194.632813-10.367187-291.804688 0-38.746094 4.136719-69.351562 34.742187-73.488281 73.488281-10.367187 97.171875-10.367187 194.632813 0 291.800782 4.136719 38.75 34.742187 69.355468 73.488281 73.488281 97.171875 10.371093 194.632813 10.371093 291.800782 0 38.75-4.132813 69.355468-34.738281 73.488281-73.488281 10.371093-97.167969 10.371093-194.628907 0-291.800782zm0 0" fill="url(#c)"/><path d="m7.671875 409.804688c.351563 3.539062.714844 7.078124 1.09375 10.617187 4.660156 43.664063 39.148437 78.152344 82.816406 82.8125 109.503907 11.6875 219.335938 11.6875 328.839844 0 43.667969-4.660156 78.152344-39.148437 82.8125-82.8125.378906-3.539063.742187-7.078125 1.097656-10.617187zm0 0" fill="url(#d)"/><path d="m420.421875 503.234375c43.667969-4.660156 78.152344-39.148437 82.8125-82.816406 4.730469-44.308594 7.542969-88.675781 8.445313-133.050781l-140.289063-140.289063c-28.933594-30.636719-69.925781-49.761719-115.390625-49.761719-87.640625 0-158.683594 71.042969-158.683594 158.683594 0 45.464844 19.125 86.457031 49.761719 115.390625l140.289063 140.289063c44.375-.902344 88.742187-3.714844 133.054687-8.445313zm0 0" fill="url(#e)"/><path d="m511.679688 287.371094c-.902344 44.375-3.714844 88.738281-8.445313 133.050781-4.65625 43.660156-39.140625 78.15625-82.8125 82.8125-44.3125 4.730469-88.675781 7.539063-133.050781 8.445313l-140.164063-140.160157c28.410157 26.765625 66.6875 43.160157 108.792969 43.160157 87.640625 0 158.679688-71.039063 158.679688-158.679688 0-42.105469-16.394532-80.382812-43.160157-108.796875zm0 0" fill="url(#f)"/><path d="m509.582031 342.257812c-1.457031 26.0625-3.574219 52.121094-6.347656 78.164063-4.65625 43.601563-39.082031 78.144531-82.679687 82.804687-26.515626 2.832032-53.050782 4.96875-79.59375 6.425782l-165.394532-165.398438c-6.15625-4.597656-10.039062-11.351562-10.039062-18.902344 0-13.925781 13.160156-25.269531 29.496094-25.269531 6.34375 0 12.246093 1.71875 17.054687 4.617188v-80.03125h-.121094v-40.890625c0-2.289063 1.527344-4.285156 3.734375-4.878906l100.09375-27.035157c1.777344-.476562 3.667969.027344 4.96875 1.328125zm0 0" fill="url(#g)"/><path d="m256 97.316406c-87.640625 0-158.683594 71.042969-158.683594 158.683594s71.042969 158.683594 158.683594 158.683594 158.683594-71.042969 158.683594-158.683594-71.042969-158.683594-158.683594-158.683594zm0 299.855469c-77.957031 0-141.035156-63.214844-141.035156-141.171875s63.078125-141.167969 141.035156-141.167969 141.167969 63.210938 141.167969 141.167969-63.210938 141.171875-141.167969 141.171875zm0 0" fill="url(#i)"/><path d="m215.597656 178.925781 100.328125-27.097656c3.125-.84375 6.203125 1.511719 6.199219 4.75l-.074219 149.011719c.003907.132812 0 .253906 0 .386718 0 13.925782-13.726562 25.136719-30.0625 25.136719-16.335937 0-29.5-11.210937-29.5-25.136719 0-13.921874 13.164063-25.265624 29.5-25.265624 7.035157 0 13.515625 2.140624 18.597657 5.644531v-88.367188l-86.957032 23.46875.726563 96.75.300781 7.140625c.582031 13.914063-13.296875 25.136719-29.628906 25.136719-16.332032 0-29.496094-11.210937-29.496094-25.136719 0-13.921875 13.160156-25.265625 29.496094-25.265625 6.339844 0 12.242187 1.71875 17.054687 4.617188l-.121093-121.019531c-.003907-2.226563 1.488281-4.175782 3.636718-4.753907zm0 0" fill="url(#j)"/></svg>