<svg xmlns="http://www.w3.org/2000/svg" viewBox="0 0 120 120"><defs><style>.cls-1{fill:#5f98d1;}.cls-2{fill:#3a6da1;}.cls-3{fill:#fff;}</style></defs><g id="Layer_2" data-name="Layer 2"><g id="Layer_1-2" data-name="Layer 1"><rect class="cls-1" width="120" height="120" rx="14"/><path class="cls-2" d="M120,49.5V106a14,14,0,0,1-14,14H51.94L20.15,88.21l.24-.25-2.13-2.13V34.56l27,27.54c3.2,3.28,5.31,5.7,6.4,6.59,2.08,1.7,2.37,2.37,7.07,3.44l-8.63-8.74L20.15,32.24h82.58Z"/><polygon class="cls-3" points="18.26 34.56 18.26 85.83 43.26 60.09 18.26 34.56"/><polygon class="cls-3" points="104.79 34.56 104.79 85.83 79.91 60.2 104.79 34.56"/><path class="cls-3" d="M20.15,32.24h82.58L70.28,66a12.24,12.24,0,0,1-17.67,0Z"/><path class="cls-3" d="M72.15,67.83a14.85,14.85,0,0,1-21.41,0L45.23,62.1,20.15,88.21h82.58L77.66,62.1Z"/></g></g></svg>