<?xml version="1.0" encoding="utf-8"?>
<!-- Generator: Adobe Illustrator 24.1.3, SVG Export Plug-In . SVG Version: 6.00 Build 0)  -->
<svg version="1.1" id="Capa_1" xmlns="http://www.w3.org/2000/svg" xmlns:xlink="http://www.w3.org/1999/xlink" x="0px" y="0px"
	 viewBox="0 0 512 512" style="enable-background:new 0 0 512 512;" xml:space="preserve">
<style type="text/css">
	.st0{fill:#ECEFF1;}
	.st1{fill:#2196F3;}
	.st2{fill:#1976D2;}
</style>
<path class="st0" d="M480,0H32C14.4,0,0,20.9,0,46.5v418.9C0,491.1,14.4,512,32,512h448c17.7,0,32-20.9,32-46.5V46.5
	C512,20.9,497.7,0,480,0z"/>
<g>
	<path class="st1" d="M381.6,164.1c-15.2-17.9-37.4-28.1-61-28.1H211.4c-9.8,0-18.1,7.1-19.7,16.7l-40,240c-1,5.8,0.7,11.7,4.5,16.2
		c3.8,4.5,9.4,7.1,15.2,7.1h40c9.8,0,18.1-7.1,19.7-16.7L248.3,296h72.3c39.3,0,72.5-28,78.9-66.8
		C403.4,205.8,396.8,182.1,381.6,164.1z"/>
	<path class="st2" d="M341.6,124.1c-15.2-17.9-37.4-28.1-61-28.1H171.4c-9.8,0-18.1,7.1-19.7,16.7l-40,240c-1,5.8,0.7,11.7,4.5,16.2
		c3.8,4.5,9.4,7.1,15.2,7.1h40c9.8,0,18.1-7.1,19.7-16.7L208.3,256h72.3c39.3,0,72.5-28,78.9-66.8
		C363.4,165.8,356.8,142.1,341.6,124.1z"/>
</g>
</svg>
