<svg xmlns="http://www.w3.org/2000/svg" viewBox="0 0 120 120"><defs><style>.cls-1{fill:#ff6a22;}.cls-2{fill:#f1f2f2;}</style></defs><g id="Layer_2" data-name="Layer 2"><g id="Capa_1" data-name="Capa 1"><rect class="cls-1" width="120" height="120" rx="12"/><path class="cls-2" d="M20.61,72.73a.34.34,0,0,1-.33.32.33.33,0,0,1-.32-.32l-.59-4.44L20,63.78a.33.33,0,0,1,.32-.32.34.34,0,0,1,.33.32l.71,4.52Zm3,2.7a.36.36,0,0,1-.34.33.36.36,0,0,1-.34-.33l-.8-7.14L23,61a.34.34,0,0,1,.68,0l.91,7.3Zm3.26,1.21a.42.42,0,0,1-.41.4.41.41,0,0,1-.4-.4l-.76-8.34.76-8.66a.41.41,0,0,1,.4-.4.42.42,0,0,1,.41.4l.86,8.66Zm3.29.26a.48.48,0,0,1-1,0l-.71-8.6.71-8.9a.48.48,0,0,1,1,0L31,68.3Zm3.31.07a.55.55,0,0,1-.54.54A.56.56,0,0,1,32.4,77l-.67-8.67L32.4,60a.56.56,0,0,1,.55-.53.54.54,0,0,1,.54.53l.77,8.26Zm3.34,0h0a.63.63,0,0,1-.61.62A.64.64,0,0,1,35.6,77L35,68.3l.63-13.43a.63.63,0,0,1,.62-.61.63.63,0,0,1,.61.61l.72,13.43Zm3.32,0h0a.69.69,0,0,1-1.37,0l-.59-8.62.59-16.5a.69.69,0,0,1,1.37,0l.67,16.5Zm3.44-.13h0a.75.75,0,0,1-1.5,0l-.56-8.53.56-17.88a.75.75,0,0,1,1.5,0l.63,17.88ZM47,76.78a.82.82,0,0,1-1.64,0l-.52-8.48.52-18.48a.82.82,0,0,1,1.64,0l.58,18.48Zm3.45-.07h0a.91.91,0,0,1-.9.89.9.9,0,0,1-.89-.88l-.47-8.4.47-18a.9.9,0,0,1,1.79,0l.53,18Zm3.47,0h0a1,1,0,0,1-1.93,0l-.43-8.35L52,51a1,1,0,0,1,1.93,0l.48,17.35Zm3.54-.88,0,.82a1.08,1.08,0,0,1-.31.72,1,1,0,0,1-.72.3,1,1,0,0,1-.79-.37,1,1,0,0,1-.24-.61v0s-.4-8.28-.4-8.3l.39-20.44v-.2a1,1,0,0,1,.47-.86,1.06,1.06,0,0,1,.56-.17,1,1,0,0,1,.56.18,1.06,1.06,0,0,1,.47.85l.43,20.65Zm3.44.71h0a1.1,1.1,0,0,1-2.2,0l-.23-4-.22-4.13.45-22.41V45.8a1.09,1.09,0,0,1,.41-.85,1.06,1.06,0,0,1,.69-.25,1.09,1.09,0,0,1,1.1,1.09l.49,22.52ZM90.64,77.6H62.93a1.18,1.18,0,0,1-1.08-1.15V44.72c0-.58.21-.88,1-1.17a17.89,17.89,0,0,1,6.4-1.2A17.65,17.65,0,0,1,86.78,58.43a9.89,9.89,0,0,1,3.86-.78,10,10,0,1,1,0,19.95Z"/></g></g></svg>