<svg xmlns="http://www.w3.org/2000/svg" xmlns:xlink="http://www.w3.org/1999/xlink" viewBox="0 0 120 120"><defs><style>.cls-1{fill:url(#linear-gradient);}.cls-2{fill:#00d95f;}</style><linearGradient id="linear-gradient" y1="60" x2="120" y2="60" gradientUnits="userSpaceOnUse"><stop offset="0" stop-color="#173234"/><stop offset="1" stop-color="#1d2329"/></linearGradient></defs><g id="Layer_2" data-name="Layer 2"><g id="Layer_1-2" data-name="Layer 1"><rect class="cls-1" width="120" height="120" rx="14"/><path class="cls-2" d="M60,18a42,42,0,1,0,42,42A42,42,0,0,0,60,18ZM78.28,79a2.88,2.88,0,0,1-2.48,1.43,2.83,2.83,0,0,1-1.45-.4c-7.55-4.41-16.27-5.12-22.25-4.93a55.54,55.54,0,0,0-11.55,1.52A2.87,2.87,0,0,1,39,71a59.87,59.87,0,0,1,12.73-1.72A56.13,56.13,0,0,1,64,70.2,41.48,41.48,0,0,1,77.25,75,2.88,2.88,0,0,1,78.28,79Zm5.34-11.09A3.4,3.4,0,0,1,79,69.08C70,63.86,59.7,63,52.6,63.24A65.44,65.44,0,0,0,38.93,65a3.4,3.4,0,0,1-1.8-6.56,71.39,71.39,0,0,1,15.08-2,66.51,66.51,0,0,1,14.52,1.05A49.13,49.13,0,0,1,82.4,63.21,3.4,3.4,0,0,1,83.62,67.86ZM86.9,57.78a4.12,4.12,0,0,1-2.1-.57c-21.25-12.42-48.83-5-49.1-5a4.18,4.18,0,0,1-2.22-8A87.64,87.64,0,0,1,52,41.7,81.92,81.92,0,0,1,69.8,43,60.28,60.28,0,0,1,89,50a4.17,4.17,0,0,1-2.11,7.78Z"/></g></g></svg>