<svg xmlns="http://www.w3.org/2000/svg" xmlns:xlink="http://www.w3.org/1999/xlink" viewBox="0 0 120 120"><defs><style>.cls-1{fill:#673ab7;}.cls-2{fill:url(#linear-gradient);}.cls-3{fill:#fff;}.cls-4{fill:url(#linear-gradient-2);}.cls-5{fill:url(#linear-gradient-3);}</style><linearGradient id="linear-gradient" x1="18.79" y1="60" x2="101.21" y2="60" gradientUnits="userSpaceOnUse"><stop offset="0" stop-color="#173234"/><stop offset="1" stop-color="#1d2329"/></linearGradient><linearGradient id="linear-gradient-2" x1="52.51" y1="50.65" x2="60" y2="50.65" xlink:href="#linear-gradient"/><linearGradient id="linear-gradient-3" x1="73.11" y1="50.65" x2="80.6" y2="50.65" xlink:href="#linear-gradient"/></defs><g id="Layer_2" data-name="Layer 2"><g id="Layer_1-2" data-name="Layer 1"><rect class="cls-1" width="120" height="120" rx="14"/><path class="cls-2" d="M24.41,17,18.79,32V91.78h20.6V103H50.64L61.87,91.78H78.73l22.48-22.43V17ZM93.72,65.61,80.61,78.69H60L48.77,89.9V78.69H31.9V24.47H93.72Z"/><path class="cls-3" d="M31.9,24.47V78.69H48.77V89.9L60,78.69H80.61L93.72,65.61V24.47ZM60,61.87H52.51V39.44H60Zm20.6,0H73.11V39.44H80.6Z"/><rect class="cls-4" x="52.51" y="39.44" width="7.49" height="22.44"/><rect class="cls-5" x="73.11" y="39.44" width="7.49" height="22.44"/></g></g></svg>